<svg xmlns="http://www.w3.org/2000/svg" width="26" height="26" viewBox="0 0 26 26">
  <path id="Icon_awesome-power-off" data-name="Icon awesome-power-off" d="M21.111,2.791a12.708,12.708,0,0,1,5.452,10.415A12.9,12.9,0,0,1,13.589,26,12.928,12.928,0,0,1,.562,13.227,12.734,12.734,0,0,1,6,2.8a1.273,1.273,0,0,1,1.835.4l.828,1.45a1.225,1.225,0,0,1-.346,1.6A8.581,8.581,0,0,0,4.756,13.2a8.73,8.73,0,0,0,8.806,8.672,8.735,8.735,0,0,0,8.806-8.723A8.626,8.626,0,0,0,18.8,6.237a1.218,1.218,0,0,1-.341-1.594l.828-1.45a1.268,1.268,0,0,1,1.824-.4ZM15.659,13.619V1.238A1.245,1.245,0,0,0,14.4,0H12.724a1.245,1.245,0,0,0-1.258,1.238V13.619a1.245,1.245,0,0,0,1.258,1.238H14.4A1.245,1.245,0,0,0,15.659,13.619Z" transform="translate(-0.563)" fill="#fff"/>
</svg>
